<?xml version="1.0" encoding="UTF-8" standalone="no"?>
<svg width="191px" height="33px" viewBox="0 0 191 33" version="1.1" xmlns="http://www.w3.org/2000/svg" xmlns:xlink="http://www.w3.org/1999/xlink" xmlns:sketch="http://www.bohemiancoding.com/sketch/ns">
    <!-- Generator: Sketch 3.4.4 (17249) - http://www.bohemiancoding.com/sketch -->
    <title>Oval 1 Copy 2</title>
    <desc>Created with Sketch.</desc>
    <defs></defs>
    <g id="Page-1" stroke="none" stroke-width="1" fill="none" fill-rule="evenodd" sketch:type="MSPage">
        <g id="Artboard-6" sketch:type="MSArtboardGroup" transform="translate(-164.000000, -201.000000)" fill="#FFFFFF">
            <path d="M172.988175,217.70194 C172.295534,217.506119 171.788,216.86933 171.788,216.114 C171.788,215.980728 171.8038,215.851147 171.83363,215.727027 L170.68372,215.063125 C170.387502,215.346165 169.986052,215.52 169.544,215.52 C169.085564,215.52 168.670794,215.333039 168.371779,215.031205 L167.2431,215.682849 C167.280206,215.820287 167.3,215.964832 167.3,216.114 C167.3,217.02527 166.56127,217.764 165.65,217.764 C164.73873,217.764 164,217.02527 164,216.114 C164,215.20273 164.73873,214.464 165.65,214.464 C166.07798,214.464 166.467903,214.626944 166.761114,214.89418 L167.930934,214.218784 C167.906739,214.106353 167.894,213.989664 167.894,213.87 C167.894,212.95873 168.63273,212.22 169.544,212.22 C169.983625,212.22 170.383092,212.391932 170.678831,212.672223 L172.976,211.345952 L172.976,208.656447 C172.716011,208.580767 172.482536,208.442831 172.29279,208.259855 L171.144091,208.977641 C171.176686,209.107029 171.194,209.242493 171.194,209.382 C171.194,210.29327 170.45527,211.032 169.544,211.032 C168.63273,211.032 167.894,210.29327 167.894,209.382 C167.894,209.250333 167.909422,209.122268 167.938559,208.999513 L166.742201,208.308795 C166.562644,208.46748 166.34827,208.587671 166.112,208.656447 L166.112,210.041553 C166.798405,210.241359 167.3,210.875103 167.3,211.626 C167.3,212.53727 166.56127,213.276 165.65,213.276 C164.73873,213.276 164,212.53727 164,211.626 C164,210.875103 164.501595,210.241359 165.188,210.041553 L165.188,208.656447 C164.501595,208.456641 164,207.822897 164,207.072 C164,206.16073 164.73873,205.422 165.65,205.422 C166.11159,205.422 166.528911,205.611542 166.828376,205.91704 L167.928194,205.229798 C167.905778,205.121376 167.894,205.009063 167.894,204.894 C167.894,203.98273 168.63273,203.244 169.544,203.244 C170.45527,203.244 171.194,203.98273 171.194,204.894 C171.194,205.80527 170.45527,206.544 169.544,206.544 C169.081492,206.544 168.66343,206.353704 168.36384,206.047137 L167.265266,206.733602 C167.288033,206.842828 167.3,206.956016 167.3,207.072 C167.3,207.22989 167.277823,207.382601 167.236414,207.527186 L168.396109,208.196736 C168.693094,207.909058 169.09787,207.732 169.544,207.732 C169.981918,207.732 170.37999,207.902599 170.675381,208.180963 L171.833262,207.457438 C171.80367,207.333785 171.788,207.204723 171.788,207.072 C171.788,206.297236 172.321987,205.647192 173.042,205.469827 L173.042,204.252173 C172.321987,204.074808 171.788,203.424764 171.788,202.65 C171.788,201.73873 172.52673,201 173.438,201 C174.34927,201 175.088,201.73873 175.088,202.65 C175.088,203.400897 174.586405,204.034641 173.9,204.234447 L173.9,205.487553 C174.586405,205.687359 175.088,206.321103 175.088,207.072 C175.088,207.822897 174.586405,208.456641 173.9,208.656447 L173.9,211.384057 L176.088851,212.64779 C176.299572,212.433276 176.568474,212.276103 176.87,212.201827 L176.87,210.984173 C176.149987,210.806808 175.616,210.156764 175.616,209.382 C175.616,208.47073 176.35473,207.732 177.266,207.732 C177.703436,207.732 178.101114,207.902224 178.396407,208.180045 L179.542212,207.464066 C179.521084,207.35866 179.51,207.249624 179.51,207.138 C179.51,206.997572 179.527543,206.861242 179.560556,206.731081 L178.377114,206.04782 C178.083903,206.315056 177.69398,206.478 177.266,206.478 C176.35473,206.478 175.616,205.73927 175.616,204.828 C175.616,203.91673 176.35473,203.178 177.266,203.178 C178.17727,203.178 178.916,203.91673 178.916,204.828 C178.916,204.977168 178.896206,205.121713 178.8591,205.259151 L180.030324,205.935358 C180.325542,205.657944 180.722925,205.488 181.16,205.488 C182.07127,205.488 182.81,206.22673 182.81,207.138 C182.81,207.888897 182.308405,208.522641 181.622,208.722447 L181.622,209.975553 C182.308405,210.175359 182.81,210.809103 182.81,211.56 C182.81,212.47127 182.07127,213.21 181.16,213.21 C180.24873,213.21 179.51,212.47127 179.51,211.56 C179.51,210.785236 180.043987,210.135192 180.764,209.957827 L180.764,208.740173 C180.457855,208.664759 180.185341,208.503889 179.973208,208.284311 L178.865758,208.976322 C178.898569,209.106109 178.916,209.242019 178.916,209.382 C178.916,210.132897 178.414405,210.766641 177.728,210.966447 L177.728,212.219553 C178.414405,212.419359 178.916,213.053103 178.916,213.804 C178.916,213.9587 178.89471,214.108427 178.854901,214.250412 L180.018736,214.922352 C180.315102,214.63844 180.71718,214.464 181.16,214.464 C182.07127,214.464 182.81,215.20273 182.81,216.114 C182.81,217.02527 182.07127,217.764 181.16,217.764 C180.24873,217.764 179.51,217.02527 179.51,216.114 C179.51,215.979124 179.526183,215.848028 179.556714,215.722547 L178.365165,215.034606 C178.073349,215.295433 177.688192,215.454 177.266,215.454 C176.35473,215.454 175.616,214.71527 175.616,213.804 C175.616,213.686811 175.628217,213.572476 175.651447,213.462198 L173.405,212.165212 L171.145165,213.469928 C171.177067,213.59802 171.194,213.732033 171.194,213.87 C171.194,214.00562 171.177638,214.137419 171.14678,214.26353 L172.293417,214.925541 C172.590096,214.639747 172.993524,214.464 173.438,214.464 C174.34927,214.464 175.088,215.20273 175.088,216.114 C175.088,216.880266 174.565662,217.524534 173.857623,217.710167 L173.857623,219.8712 L175.737743,218.784843 C175.701383,218.648693 175.682,218.50561 175.682,218.358 C175.682,217.44673 176.42073,216.708 177.332,216.708 C178.24327,216.708 178.982,217.44673 178.982,218.358 C178.982,219.26927 178.24327,220.008 177.332,220.008 C176.882248,220.008 176.474525,219.828056 176.176897,219.536235 L173.857623,220.876065 L173.857623,224.821622 L182.388098,224.821622 C182.548205,224.821622 182.678,224.9518 182.678,225.111801 C182.678,225.272579 182.548205,225.40224 182.388098,225.40224 L173.887416,225.40224 C174.037419,226.502016 175.081481,226.64957 176.709491,226.782601 C178.29605,226.91278 180.094272,227.060333 180.577701,228.847049 C180.609307,228.963743 180.540653,229.08303 180.425107,229.114667 C180.405677,229.119594 180.386764,229.122187 180.367852,229.122187 C180.271995,229.122187 180.184429,229.058395 180.158262,228.96115 C179.793748,227.614759 178.483101,227.379297 177.118308,227.254823 C177.155096,227.295796 177.190071,227.338324 177.222455,227.382408 C177.483081,227.734825 177.89112,227.898974 178.322994,228.072719 C178.864196,228.290029 179.423533,228.515378 179.676906,229.133338 C179.722503,229.244587 179.669393,229.371913 179.557992,229.417553 C179.531048,229.428445 179.503068,229.433631 179.475866,229.433631 C179.390113,229.433631 179.309023,229.383064 179.274567,229.298266 C179.090884,228.850679 178.660047,228.677453 178.161074,228.476999 C177.97221,228.401018 177.781015,228.322963 177.59811,228.228052 C177.652256,228.43084 177.695003,228.637518 177.735159,228.83901 C177.807958,229.202577 177.876871,229.546695 178.00848,229.835318 C178.058481,229.944751 178.010553,230.073893 177.901224,230.123941 C177.871949,230.137167 177.841379,230.14365 177.811067,230.14365 C177.728423,230.14365 177.649665,230.096194 177.613136,230.016583 C177.460024,229.6818 177.38308,229.296451 177.308726,228.924586 C177.130484,228.03408 176.976595,227.264936 175.911808,227.147205 C175.908958,227.146946 175.906885,227.146427 175.904554,227.145908 C175.149358,227.060851 174.445717,226.910446 173.983791,226.505647 C174.200376,227.011581 174.522144,227.381371 174.838212,227.742345 C174.968784,227.891973 175.100134,228.042897 175.223712,228.202379 C175.225784,228.204453 175.228375,228.206528 175.230447,228.208862 C175.360243,228.377161 175.511541,228.519787 175.671907,228.672008 C175.88616,228.874018 176.110775,229.088217 176.293939,229.375284 C176.298085,229.38047 176.30223,229.385138 176.305857,229.391103 C176.547312,229.775934 177.259243,230.561674 177.710806,230.816326 C177.815471,230.874933 177.852519,231.007704 177.793709,231.112729 C177.753812,231.183524 177.679976,231.223459 177.604068,231.223459 C177.567798,231.223459 177.531269,231.214383 177.49759,231.195712 C177.24344,231.052308 176.939289,230.785986 176.660527,230.499696 C176.686693,230.767833 176.686693,231.072016 176.648609,231.429618 C176.636692,231.541645 176.542649,231.624109 176.432802,231.624109 C176.42503,231.624109 176.417517,231.62359 176.409745,231.623071 C176.290571,231.610624 176.203782,231.503006 176.216477,231.383719 C176.322437,230.385336 176.126838,229.856582 175.827868,229.466565 C175.959995,230.144687 175.874501,231.042194 175.37216,232.34839 C175.33874,232.435003 175.256355,232.488163 175.169047,232.488163 C175.142881,232.488163 175.116456,232.483236 175.091067,232.473641 C174.978888,232.430076 174.922929,232.304305 174.966194,232.19202 C175.939528,229.662611 175.277599,228.905914 174.511004,228.029153 C174.207371,227.681664 173.883271,227.309021 173.644666,226.811126 C173.71332,227.663512 173.823685,228.362898 173.919282,228.969189 C174.20763,230.794025 174.381208,231.896135 172.950611,233.908979 C172.908382,233.968622 172.841282,234 172.773405,234 C172.729622,234 172.685839,233.987553 172.647496,233.960065 C172.549567,233.890048 172.526769,233.754424 172.596459,233.65666 C173.647516,232.177757 173.769539,231.256911 173.636116,230.057555 C173.547514,230.210554 173.443885,230.338658 173.34181,230.464688 C173.070043,230.801026 172.813303,231.118694 172.867449,232.011014 C172.874703,232.131079 172.783509,232.234548 172.663559,232.24155 C172.659155,232.242069 172.65475,232.242069 172.650346,232.242069 C172.536095,232.242069 172.440238,232.152862 172.433243,232.037465 C172.368994,230.976327 172.706306,230.559599 173.003721,230.191365 C173.300359,229.824167 173.556322,229.507019 173.402433,228.47285 C173.334815,228.022151 173.268752,227.520626 173.219787,226.9509 C172.986104,227.427012 172.599568,227.946171 171.958623,228.487372 L171.958364,228.487372 C171.193582,229.13282 171.401099,229.836874 171.641,230.651139 C171.798257,231.185079 171.960955,231.736654 171.859916,232.310529 C171.841522,232.416332 171.749552,232.490238 171.646182,232.490238 C171.633487,232.490238 171.620793,232.489201 171.608098,232.487126 C171.489702,232.46638 171.410944,232.353576 171.43167,232.235067 C171.514832,231.762067 171.367161,231.260023 171.224153,230.774835 C171.159385,230.554931 171.092803,230.327508 171.046688,230.096713 C171.027258,230.18177 171.009123,230.266827 170.990729,230.35344 C170.830104,231.105468 170.664038,231.883947 169.655729,232.545473 C169.6192,232.569331 169.577489,232.581 169.536815,232.581 C169.466088,232.581 169.396398,232.54651 169.354687,232.482718 C169.288882,232.381842 169.317121,232.247255 169.417382,232.181388 C170.275948,231.618144 170.409888,230.990071 170.565332,230.262159 C170.63295,229.945788 170.70549,229.60945 170.848498,229.27 C170.785284,229.30812 170.722848,229.344944 170.664557,229.379433 C170.027239,229.756744 169.675937,229.963941 169.535001,230.765759 C169.516607,230.871561 169.424895,230.945986 169.321267,230.945986 C169.308572,230.945986 169.296396,230.944949 169.283442,230.942356 C169.165305,230.92161 169.086029,230.808806 169.106755,230.690297 C169.282665,229.691395 169.769462,229.403291 170.443309,229.004715 C170.798756,228.794407 171.201873,228.556351 171.677529,228.155183 C171.677789,228.155183 171.678048,228.154664 171.678048,228.154664 C172.429098,227.520626 172.79439,226.933007 172.972632,226.415404 C172.9146,226.486457 172.853718,226.555177 172.785841,226.61897 C172.139455,227.22526 171.086326,227.486137 169.654952,227.397968 C169.019188,227.51544 168.947684,227.861891 168.850532,228.625849 C168.762188,229.320567 168.652083,230.185141 167.893001,231.084204 C167.849995,231.135549 167.788854,231.161741 167.726935,231.161741 C167.677193,231.161741 167.627452,231.144626 167.586777,231.110136 C167.495066,231.032599 167.483407,230.895419 167.56087,230.80362 C168.237049,230.00232 168.337828,229.2088 168.419177,228.571132 C168.475654,228.128473 168.531096,227.701372 168.782396,227.392522 C168.545863,227.407822 168.330833,227.436606 168.135492,227.476542 C167.580041,227.707596 167.555948,227.99985 167.51346,228.527048 C167.484703,228.879982 167.449728,229.319012 167.213195,229.804978 C167.175888,229.882255 167.098426,229.927377 167.017854,229.927377 C166.985988,229.927377 166.953604,229.920375 166.922775,229.905594 C166.814742,229.852952 166.769922,229.722773 166.822514,229.614377 C167.022777,229.202058 167.053088,228.825266 167.080032,228.492039 C167.098685,228.259689 167.117856,228.032265 167.191174,227.821956 C166.354888,228.305588 166.22302,229.018719 166.215248,229.066434 C166.197631,229.172755 166.105143,229.248217 166.000995,229.248217 C165.989078,229.248217 165.976902,229.24718 165.964725,229.245105 C165.846588,229.225397 165.766535,229.11363 165.786224,228.994861 C165.892962,228.355378 166.483647,227.407822 167.977199,227.071484 C167.979531,227.070446 167.981085,227.069409 167.983417,227.068372 C168.009324,227.05774 168.035491,227.053072 168.061657,227.052553 C168.509852,226.961013 169.036287,226.922374 169.652879,226.96205 C170.95679,227.047626 171.936861,226.819165 172.488426,226.301562 C172.795686,226.013717 172.924445,225.685158 172.972114,225.40224 L164.457183,225.40224 C164.297077,225.40224 164.167281,225.272579 164.167281,225.111801 C164.167281,224.9518 164.297077,224.821622 164.457183,224.821622 L172.987917,224.821622 L172.987917,220.876065 L170.662484,219.532009 C170.480258,219.710008 170.256165,219.845487 170.006421,219.92157 C169.840526,219.977616 169.662811,220.008 169.478,220.008 C168.56673,220.008 167.828,219.26927 167.828,218.358 C167.828,217.44673 168.56673,216.708 169.478,216.708 C170.120583,216.708 170.677373,217.075325 170.949847,217.611452 C171.075387,217.840508 171.147986,218.102447 171.147986,218.381664 C171.147986,218.518586 171.129073,218.650579 171.096948,218.777387 L172.987917,219.870681 L172.988175,217.70194 Z M178.114074,218.8503 C178.203978,218.707776 178.256,218.538963 178.256,218.358 C178.256,217.847689 177.842311,217.434 177.332,217.434 C176.977652,217.434 176.669891,217.633464 176.514871,217.926237 L176.540576,217.941079 C176.465445,218.07074 176.421921,218.221145 176.421921,218.381664 C176.421921,218.542702 176.465963,218.693627 176.541354,218.823805 C176.694465,219.087793 176.978668,219.265687 177.305099,219.265687 C177.631012,219.265687 177.915473,219.087793 178.068326,218.823805 L178.114074,218.8503 Z M169.763295,219.237115 C170.133985,219.116902 170.402,218.76875 170.402,218.358 C170.402,217.847689 169.988311,217.434 169.478,217.434 C168.967689,217.434 168.554,217.847689 168.554,218.358 C168.554,218.545759 168.610002,218.720438 168.706214,218.866244 L168.777733,218.824843 C168.930585,219.088312 169.214529,219.265687 169.540183,219.265687 C169.617283,219.265687 169.69205,219.25576 169.763295,219.237115 Z M174.222737,216.602053 C174.311005,216.460428 174.362,216.293169 174.362,216.114 C174.362,215.603689 173.948311,215.19 173.438,215.19 C172.927689,215.19 172.514,215.603689 172.514,216.114 C172.514,216.287671 172.561914,216.450152 172.645244,216.588944 L172.658636,216.581204 C172.811489,216.844933 173.09621,217.023345 173.422641,217.023345 C173.74959,217.023345 174.034051,216.844933 174.186645,216.581204 L174.222737,216.602053 Z M165.65,207.996 C166.160311,207.996 166.574,207.582311 166.574,207.072 C166.574,206.561689 166.160311,206.148 165.65,206.148 C165.139689,206.148 164.726,206.561689 164.726,207.072 C164.726,207.582311 165.139689,207.996 165.65,207.996 Z M165.65,212.55 C166.160311,212.55 166.574,212.136311 166.574,211.626 C166.574,211.115689 166.160311,210.702 165.65,210.702 C165.139689,210.702 164.726,211.115689 164.726,211.626 C164.726,212.136311 165.139689,212.55 165.65,212.55 Z M169.544,205.818 C170.054311,205.818 170.468,205.404311 170.468,204.894 C170.468,204.383689 170.054311,203.97 169.544,203.97 C169.033689,203.97 168.62,204.383689 168.62,204.894 C168.62,205.404311 169.033689,205.818 169.544,205.818 Z M173.438,203.574 C173.948311,203.574 174.362,203.160311 174.362,202.65 C174.362,202.139689 173.948311,201.726 173.438,201.726 C172.927689,201.726 172.514,202.139689 172.514,202.65 C172.514,203.160311 172.927689,203.574 173.438,203.574 Z M173.438,207.996 C173.948311,207.996 174.362,207.582311 174.362,207.072 C174.362,206.561689 173.948311,206.148 173.438,206.148 C172.927689,206.148 172.514,206.561689 172.514,207.072 C172.514,207.582311 172.927689,207.996 173.438,207.996 Z M169.544,210.306 C170.054311,210.306 170.468,209.892311 170.468,209.382 C170.468,208.871689 170.054311,208.458 169.544,208.458 C169.033689,208.458 168.62,208.871689 168.62,209.382 C168.62,209.892311 169.033689,210.306 169.544,210.306 Z M177.266,205.752 C177.776311,205.752 178.19,205.338311 178.19,204.828 C178.19,204.317689 177.776311,203.904 177.266,203.904 C176.755689,203.904 176.342,204.317689 176.342,204.828 C176.342,205.338311 176.755689,205.752 177.266,205.752 Z M181.16,208.062 C181.670311,208.062 182.084,207.648311 182.084,207.138 C182.084,206.627689 181.670311,206.214 181.16,206.214 C180.649689,206.214 180.236,206.627689 180.236,207.138 C180.236,207.648311 180.649689,208.062 181.16,208.062 Z M181.16,212.484 C181.670311,212.484 182.084,212.070311 182.084,211.56 C182.084,211.049689 181.670311,210.636 181.16,210.636 C180.649689,210.636 180.236,211.049689 180.236,211.56 C180.236,212.070311 180.649689,212.484 181.16,212.484 Z M177.266,210.306 C177.776311,210.306 178.19,209.892311 178.19,209.382 C178.19,208.871689 177.776311,208.458 177.266,208.458 C176.755689,208.458 176.342,208.871689 176.342,209.382 C176.342,209.892311 176.755689,210.306 177.266,210.306 Z M177.266,214.728 C177.776311,214.728 178.19,214.314311 178.19,213.804 C178.19,213.293689 177.776311,212.88 177.266,212.88 C176.755689,212.88 176.342,213.293689 176.342,213.804 C176.342,214.314311 176.755689,214.728 177.266,214.728 Z M181.16,217.038 C181.670311,217.038 182.084,216.624311 182.084,216.114 C182.084,215.603689 181.670311,215.19 181.16,215.19 C180.649689,215.19 180.236,215.603689 180.236,216.114 C180.236,216.624311 180.649689,217.038 181.16,217.038 Z M169.544,214.794 C170.054311,214.794 170.468,214.380311 170.468,213.87 C170.468,213.359689 170.054311,212.946 169.544,212.946 C169.033689,212.946 168.62,213.359689 168.62,213.87 C168.62,214.380311 169.033689,214.794 169.544,214.794 Z M165.65,217.038 C166.160311,217.038 166.574,216.624311 166.574,216.114 C166.574,215.603689 166.160311,215.19 165.65,215.19 C165.139689,215.19 164.726,215.603689 164.726,216.114 C164.726,216.624311 165.139689,217.038 165.65,217.038 Z M198.699412,206.904999 L198.699412,206.029999 L192.42,206.029999 L192.42,206.904999 L195.070735,206.904999 L195.070735,215.191763 L196.048676,215.191763 L196.048676,206.904999 L198.699412,206.904999 Z M205.696195,215.191763 L205.696195,214.316763 L200.986636,214.316763 L200.986636,211.009778 L205.001342,211.009778 L205.001342,210.134778 L200.986636,210.134778 L200.986636,206.904999 L205.696195,206.904999 L205.696195,206.029999 L200.008695,206.029999 L200.008695,215.191763 L205.696195,215.191763 Z M213.619449,215.191763 L213.619449,206.029999 L207.327169,206.029999 L207.327169,215.191763 L208.30511,215.191763 L208.30511,206.904999 L212.641507,206.904999 L212.641507,215.191763 L213.619449,215.191763 Z M221.941599,215.191763 L221.941599,206.029999 L216.897482,206.029999 L216.897482,209.748749 C216.897482,213.557572 216.08682,214.316763 214.954467,214.316763 L214.709982,214.316763 L214.709982,215.191763 L215.173217,215.191763 C216.923217,215.191763 217.849688,213.904999 217.849688,210.044705 L217.849688,206.904999 L220.963658,206.904999 L220.963658,215.191763 L221.941599,215.191763 Z M230.752721,215.191763 L230.752721,206.029999 L229.82625,206.029999 L225.168162,213.493234 L225.168162,206.029999 L224.190221,206.029999 L224.190221,215.191763 L225.116691,215.191763 L229.774779,207.715661 L229.774779,215.191763 L230.752721,215.191763 Z M240.387371,217.404999 L240.387371,214.316763 L239.293621,214.316763 L239.293621,206.029999 L238.31568,206.029999 L238.31568,214.316763 L233.979283,214.316763 L233.979283,206.029999 L233.001342,206.029999 L233.001342,215.191763 L239.422298,215.191763 L239.422298,217.404999 L240.387371,217.404999 Z M248.220551,215.191763 L244.862096,206.029999 L244.038566,206.029999 L240.667243,215.191763 L241.709522,215.191763 L242.442978,213.120072 L246.444816,213.120072 L247.178272,215.191763 L248.220551,215.191763 Z M246.161728,212.270808 L242.738934,212.270808 L244.463199,207.432572 L246.161728,212.270808 Z M199.394265,228.166028 L198.416324,228.166028 C198.171838,229.285513 197.361176,230.018969 196.215956,230.018969 C195.611176,230.018969 195.032132,229.787352 194.633235,229.375587 C194.054191,228.783675 193.989853,228.153161 193.989853,226.235881 C193.989853,224.318602 194.054191,223.688087 194.633235,223.096175 C195.032132,222.684411 195.611176,222.452793 196.215956,222.452793 C197.361176,222.452793 198.146103,223.186249 198.390588,224.305734 L199.394265,224.305734 C199.085441,222.581469 197.863015,221.577793 196.215956,221.577793 C195.315221,221.577793 194.491691,221.912352 193.874044,222.529999 C193.011912,223.392131 193.011912,224.292866 193.011912,226.235881 C193.011912,228.178896 193.011912,229.079631 193.874044,229.941763 C194.491691,230.559411 195.315221,230.893969 196.215956,230.893969 C197.850147,230.893969 199.098309,229.890293 199.394265,228.166028 L199.394265,228.166028 Z M206.957224,225.605366 C206.957224,224.485881 206.892886,223.327793 206.095092,222.529999 C205.477445,221.912352 204.653915,221.577793 203.75318,221.577793 C202.852445,221.577793 202.028915,221.912352 201.411268,222.529999 C200.626342,223.314925 200.549136,224.434411 200.549136,225.528161 L200.549136,226.235881 C200.549136,228.063087 200.574871,229.105366 201.411268,229.941763 C202.028915,230.559411 202.839577,230.893969 203.75318,230.893969 C204.666783,230.893969 205.477445,230.559411 206.095092,229.941763 C206.931489,229.105366 206.957224,228.063087 206.957224,226.235881 L206.957224,225.605366 Z M205.979283,226.686249 C205.979283,227.741396 205.966415,228.732205 205.335901,229.362719 C204.911268,229.787352 204.35796,230.018969 203.75318,230.018969 C203.148401,230.018969 202.595092,229.787352 202.17046,229.362719 C201.578548,228.770808 201.527077,227.870072 201.527077,226.879263 L201.527077,225.965661 C201.527077,224.704631 201.527077,223.752425 202.17046,223.109043 C202.595092,222.684411 203.161268,222.452793 203.75318,222.452793 C204.345092,222.452793 204.911268,222.684411 205.335901,223.109043 C205.94068,223.713822 205.979283,224.666028 205.979283,225.746911 L205.979283,226.686249 Z M216.244449,233.029999 L216.244449,229.941763 L215.150699,229.941763 L215.150699,221.654999 L214.172757,221.654999 L214.172757,229.941763 L209.83636,229.941763 L209.83636,221.654999 L208.858419,221.654999 L208.858419,230.816763 L215.279375,230.816763 L215.279375,233.029999 L216.244449,233.029999 Z M224.257776,230.816763 L224.257776,221.654999 L223.331305,221.654999 L218.673217,229.118234 L218.673217,221.654999 L217.695276,221.654999 L217.695276,230.816763 L218.621746,230.816763 L223.279835,223.340661 L223.279835,230.816763 L224.257776,230.816763 Z M232.88875,230.816763 L229.530294,221.654999 L228.706765,221.654999 L225.335441,230.816763 L226.377721,230.816763 L227.111176,228.745072 L231.113015,228.745072 L231.846471,230.816763 L232.88875,230.816763 Z M230.829926,227.895808 L227.407132,227.895808 L229.131397,223.057572 L230.829926,227.895808 Z M240.027077,230.816763 L240.027077,221.654999 L234.98296,221.654999 L234.98296,225.373749 C234.98296,229.182572 234.172298,229.941763 233.039945,229.941763 L232.79546,229.941763 L232.79546,230.816763 L233.258695,230.816763 C235.008695,230.816763 235.935165,229.529999 235.935165,225.669705 L235.935165,222.529999 L239.049136,222.529999 L239.049136,230.816763 L240.027077,230.816763 Z M248.542243,228.127425 C248.542243,226.506102 247.422757,225.425219 245.71136,225.425219 L243.25364,225.425219 L243.25364,221.654999 L242.275699,221.654999 L242.275699,230.816763 L245.71136,230.816763 C247.40989,230.816763 248.542243,229.735881 248.542243,228.127425 L248.542243,228.127425 Z M247.551434,228.127425 C247.551434,229.272646 246.843713,229.941763 245.621287,229.941763 L243.25364,229.941763 L243.25364,226.300219 L245.621287,226.300219 C246.843713,226.300219 247.551434,226.969337 247.551434,228.127425 L247.551434,228.127425 Z M256.285349,230.816763 L256.285349,221.654999 L255.307408,221.654999 L255.307408,225.759778 L250.958143,225.759778 L250.958143,221.654999 L249.980202,221.654999 L249.980202,230.816763 L250.958143,230.816763 L250.958143,226.634778 L255.307408,226.634778 L255.307408,230.816763 L256.285349,230.816763 Z M267.000882,230.816763 L267.000882,221.654999 L266.022941,221.654999 L266.022941,230.816763 L267.000882,230.816763 Z M264.800515,228.127425 C264.800515,226.506102 263.681029,225.425219 261.969632,225.425219 L259.511912,225.425219 L259.511912,221.654999 L258.533971,221.654999 L258.533971,230.816763 L261.969632,230.816763 C263.668162,230.816763 264.800515,229.735881 264.800515,228.127425 L264.800515,228.127425 Z M263.809706,228.127425 C263.809706,229.272646 263.101985,229.941763 261.879559,229.941763 L259.511912,229.941763 L259.511912,226.300219 L261.879559,226.300219 C263.101985,226.300219 263.809706,226.969337 263.809706,228.127425 L263.809706,228.127425 Z M274.821195,230.816763 L271.990313,226.120072 L274.62818,221.654999 L273.495827,221.654999 L271.462739,225.270808 L269.429651,221.654999 L268.297298,221.654999 L270.922298,226.120072 L268.117151,230.816763 L269.223768,230.816763 L271.462739,226.969337 L273.688842,230.816763 L274.821195,230.816763 Z M284.079467,222.529999 L284.079467,221.654999 L277.800055,221.654999 L277.800055,222.529999 L280.45079,222.529999 L280.45079,230.816763 L281.428732,230.816763 L281.428732,222.529999 L284.079467,222.529999 Z M291.07625,230.816763 L291.07625,229.941763 L286.366691,229.941763 L286.366691,226.634778 L290.381397,226.634778 L290.381397,225.759778 L286.366691,225.759778 L286.366691,222.529999 L291.07625,222.529999 L291.07625,221.654999 L285.38875,221.654999 L285.38875,230.816763 L291.07625,230.816763 Z M298.278915,230.816763 L295.448033,226.120072 L298.085901,221.654999 L296.953548,221.654999 L294.92046,225.270808 L292.887371,221.654999 L291.755018,221.654999 L294.380018,226.120072 L291.574871,230.816763 L292.681489,230.816763 L294.92046,226.969337 L297.146562,230.816763 L298.278915,230.816763 Z M305.700331,230.816763 L305.700331,221.654999 L304.72239,221.654999 L304.72239,225.759778 L300.373125,225.759778 L300.373125,221.654999 L299.395184,221.654999 L299.395184,230.816763 L300.373125,230.816763 L300.373125,226.634778 L304.72239,226.634778 L304.72239,230.816763 L305.700331,230.816763 Z M314.009614,225.605366 C314.009614,224.485881 313.945276,223.327793 313.147482,222.529999 C312.529835,221.912352 311.706305,221.577793 310.80557,221.577793 C309.904835,221.577793 309.081305,221.912352 308.463658,222.529999 C307.678732,223.314925 307.601526,224.434411 307.601526,225.528161 L307.601526,226.235881 C307.601526,228.063087 307.627261,229.105366 308.463658,229.941763 C309.081305,230.559411 309.891967,230.893969 310.80557,230.893969 C311.719173,230.893969 312.529835,230.559411 313.147482,229.941763 C313.983879,229.105366 314.009614,228.063087 314.009614,226.235881 L314.009614,225.605366 Z M313.031673,226.686249 C313.031673,227.741396 313.018805,228.732205 312.38829,229.362719 C311.963658,229.787352 311.410349,230.018969 310.80557,230.018969 C310.20079,230.018969 309.647482,229.787352 309.222849,229.362719 C308.630938,228.770808 308.579467,227.870072 308.579467,226.879263 L308.579467,225.965661 C308.579467,224.704631 308.579467,223.752425 309.222849,223.109043 C309.647482,222.684411 310.213658,222.452793 310.80557,222.452793 C311.397482,222.452793 311.963658,222.684411 312.38829,223.109043 C312.99307,223.713822 313.031673,224.666028 313.031673,225.746911 L313.031673,226.686249 Z M321.714118,230.816763 L321.714118,221.654999 L316.67,221.654999 L316.67,225.373749 C316.67,229.182572 315.859338,229.941763 314.726985,229.941763 L314.4825,229.941763 L314.4825,230.816763 L314.945735,230.816763 C316.695735,230.816763 317.622206,229.529999 317.622206,225.669705 L317.622206,222.529999 L320.736176,222.529999 L320.736176,230.816763 L321.714118,230.816763 Z M330.023401,225.605366 C330.023401,224.485881 329.959063,223.327793 329.161268,222.529999 C328.543621,221.912352 327.720092,221.577793 326.819357,221.577793 C325.918621,221.577793 325.095092,221.912352 324.477445,222.529999 C323.692518,223.314925 323.615313,224.434411 323.615313,225.528161 L323.615313,226.235881 C323.615313,228.063087 323.641048,229.105366 324.477445,229.941763 C325.095092,230.559411 325.905754,230.893969 326.819357,230.893969 C327.73296,230.893969 328.543621,230.559411 329.161268,229.941763 C329.997665,229.105366 330.023401,228.063087 330.023401,226.235881 L330.023401,225.605366 Z M329.04546,226.686249 C329.04546,227.741396 329.032592,228.732205 328.402077,229.362719 C327.977445,229.787352 327.424136,230.018969 326.819357,230.018969 C326.214577,230.018969 325.661268,229.787352 325.236636,229.362719 C324.644724,228.770808 324.593254,227.870072 324.593254,226.879263 L324.593254,225.965661 C324.593254,224.704631 324.593254,223.752425 325.236636,223.109043 C325.661268,222.684411 326.227445,222.452793 326.819357,222.452793 C327.411268,222.452793 327.977445,222.684411 328.402077,223.109043 C329.006857,223.713822 329.04546,224.666028 329.04546,225.746911 L329.04546,226.686249 Z M337.522022,222.529999 L337.522022,221.654999 L332.014669,221.654999 L332.014669,230.816763 L332.99261,230.816763 L332.99261,222.529999 L337.522022,222.529999 Z M345.406673,230.816763 L345.406673,221.654999 L344.480202,221.654999 L339.822114,229.118234 L339.822114,221.654999 L338.844173,221.654999 L338.844173,230.816763 L339.770643,230.816763 L344.428732,223.340661 L344.428732,230.816763 L345.406673,230.816763 Z M354.217794,230.816763 L354.217794,221.654999 L353.291324,221.654999 L348.633235,229.118234 L348.633235,221.654999 L347.655294,221.654999 L347.655294,230.816763 L348.581765,230.816763 L353.239853,223.340661 L353.239853,230.816763 L354.217794,230.816763 Z M352.815221,219.454631 L351.991691,219.454631 C351.940221,220.085146 351.567059,220.406837 350.936544,220.406837 C350.306029,220.406837 349.932868,220.085146 349.881397,219.454631 L349.057868,219.454631 C349.135074,220.599852 349.868529,221.075955 350.936544,221.075955 C352.004559,221.075955 352.738015,220.599852 352.815221,219.454631 L352.815221,219.454631 Z" id="Oval-1-Copy-2" sketch:type="MSShapeGroup"></path>
        </g>
    </g>
</svg>